<?xml version="1.0" encoding="UTF-8"?>
<!DOCTYPE svg PUBLIC "-//W3C//DTD SVG 1.1//EN" "http://www.w3.org/Graphics/SVG/1.1/DTD/svg11.dtd">
<svg xmlns="http://www.w3.org/2000/svg" version="1.1" width="512px" height="512px" style="shape-rendering:geometricPrecision; text-rendering:geometricPrecision; image-rendering:optimizeQuality; fill-rule:evenodd; clip-rule:evenodd" xmlns:xlink="http://www.w3.org/1999/xlink">
<g><path style="opacity:0.98" fill="#79d06c" d="M 233.5,-0.5 C 248.167,-0.5 262.833,-0.5 277.5,-0.5C 366.024,9.81878 432.857,53.1521 478,129.5C 514.085,198.142 519.418,269.142 494,342.5C 457.868,430.826 393.035,484.66 299.5,504C 244.446,513.064 191.779,505.564 141.5,481.5C 99.9672,491.218 58.6338,501.218 17.5,511.5C 14.1667,511.5 10.8333,511.5 7.5,511.5C 3.49465,509.47 1.49465,506.137 1.5,501.5C 10.4996,457.501 19.4996,413.501 28.5,369.5C -0.616785,309.383 -6.45012,247.05 11,182.5C 37.4406,100.392 90.9406,43.8924 171.5,13C 191.818,6.24942 212.485,1.74942 233.5,-0.5 Z M 237.5,55.5 C 314.222,51.9504 375.056,80.9504 420,142.5C 457.095,201.275 463.429,263.275 439,328.5C 413.567,386.262 370.733,424.762 310.5,444C 268.299,455.368 226.632,453.701 185.5,439C 173.146,433.488 160.813,427.988 148.5,422.5C 123.085,428.187 97.7514,434.187 72.5,440.5C 72.1667,439.833 71.8333,439.167 71.5,438.5C 76.9124,413.017 82.2457,387.517 87.5,362C 83.416,352.331 78.916,342.831 74,333.5C 47.1227,266.869 52.7893,203.202 91,142.5C 126.954,92.0958 175.787,63.0958 237.5,55.5 Z"/></g>
<g><path style="opacity:0.977" fill="#79d06c" d="M 167.5,130.5 C 175.215,129.571 181.715,131.904 187,137.5C 194.941,154.381 202.608,171.381 210,188.5C 212,193.5 212,198.5 210,203.5C 206.054,209.779 201.721,215.779 197,221.5C 192.41,228.53 192.41,235.53 197,242.5C 219.608,272.78 247.441,296.947 280.5,315C 286.158,317.204 291.491,316.537 296.5,313C 302.948,305.545 310.282,299.212 318.5,294C 322.5,293.333 326.5,293.333 330.5,294C 346.788,298.822 363.122,303.489 379.5,308C 390.791,313.084 394.624,321.584 391,333.5C 383.357,347.813 372.857,359.647 359.5,369C 347.902,374.953 335.569,377.787 322.5,377.5C 295.583,376.361 270.583,368.861 247.5,355C 211.615,332.452 180.781,304.285 155,270.5C 142.296,253.409 133.63,234.409 129,213.5C 127.025,201.161 127.025,188.828 129,176.5C 135.479,159.386 145.979,145.22 160.5,134C 162.925,132.787 165.259,131.621 167.5,130.5 Z"/></g>
</svg>
